
<svg xmlns="http://www.w3.org/2000/svg" version="1.1" xmlns:xlink="http://www.w3.org/1999/xlink" preserveAspectRatio="none" x="0px" y="0px" width="512px" height="512px" viewBox="0 0 512 512">
<defs>
<g id="Layer0_0_FILL">
<path fill="#167184" stroke="none" d="
M 363.05 415.55
L 410.5 407.95 440.6 346.45 363.05 415.55 Z"/>

<path fill="#2F88A2" stroke="none" d="
M 427 424.95
L 410.5 407.95 363.05 415.55 363 415.6 362.95 415.6 304.55 424.95 427 424.95 Z"/>

<path fill="#2E8FC1" stroke="none" d="
M 410.5 407.95
L 427 424.95 440.6 346.45 410.5 407.95 Z"/>

<path fill="#0A4C58" stroke="none" d="
M 440.6 346.45
L 446 315.45 396.5 320.95 363 415.5 362.95 415.6 363 415.6 363.05 415.55 440.6 346.45 Z"/>

<path fill="#084E5C" stroke="none" d="
M 334.5 397.45
L 362.95 415.6 363 415.5 342.5 378.95 334.5 397.45 Z"/>

<path fill="#085965" stroke="none" d="
M 362.95 415.6
L 334.5 397.45 342.5 378.95 310.05 391.95 304.55 424.95 362.95 415.6 Z"/>

<path fill="#01395A" stroke="none" d="
M 361 336.95
L 342.5 378.95 363 415.5 396.5 320.95 361 336.95 Z"/>

<path fill="#0A6B7B" stroke="none" d="
M 258.1 171
L 250.35 196.1 277.5 178.25 262.3 157.4 258.1 171 Z"/>

<path fill="#0F5866" stroke="none" d="
M 258.1 171
L 258 171 223.25 214 250.35 196.1 258.1 171 Z"/>

<path fill="#1B515E" stroke="none" d="
M 258 171
L 258.1 171 262.3 157.4 241 128.25 258 171 Z"/>

<path fill="#0E717C" stroke="none" d="
M 46.3 401.45
L 57.2 444.4 69.55 362.2 46.3 401.45 Z"/>

<path fill="#177184" stroke="none" d="
M 143.55 422.2
L 138.05 402.7 69.55 362.2 57.2 444.4 143.55 422.2 Z"/>

<path fill="#165E69" stroke="none" d="
M 282.6 396.05
L 258.55 419.2 181.05 425.2 143.55 422.2 57.2 444.4 57.25 444.7
Q 58.409375 449.1939453125 59.55 453.7
L 264.05 439.7 297.05 395.2 282.6 396.05 Z"/>

<path fill="#15738F" stroke="none" d="
M 69.55 362.2
L 86.05 327.7 33.05 349.2 46.3 401.45 69.55 362.2 Z"/>

<path fill="#0B6B76" stroke="none" d="
M 181.05 425.2
L 170.05 402.7 138.05 402.7 143.55 422.2 181.05 425.2 Z"/>

<path fill="#15718F" stroke="none" d="
M 258.55 419.2
L 282.6 396.05 170.05 402.7 181.05 425.2 258.55 419.2 Z"/>

<path fill="#105E62" stroke="none" d="
M 86.05 327.7
L 69.55 362.2 138.05 402.7 170.05 402.7 86.05 327.7 Z"/>

<path fill="#0C8DAE" stroke="none" d="
M 265.25 303
L 306.25 300.5 344.5 240.95 265.25 303 Z"/>

<path fill="#0E6472" stroke="none" d="
M 308.55 334.45
L 265.25 303 235.25 370.75 308.55 334.45 Z"/>

<path fill="#00718A" stroke="none" d="
M 308.55 334.45
L 306.25 300.5 265.25 303 308.55 334.45 Z"/>

<path fill="#043E50" stroke="none" d="
M 306.25 300.5
L 308.55 334.45 344.5 240.95 306.25 300.5 Z"/>

<path fill="#1B91C7" stroke="none" d="
M 202 325.55
L 235.25 370.75 265.25 303 202 325.55 Z"/>

<path fill="#107FAC" stroke="none" d="
M 235.25 370.75
L 202 325.55 144 346.25 235.25 370.75 Z"/>

<path fill="#118BB8" stroke="none" d="
M 181.25 227.75
L 191.95 200.15 162.5 203.25 181.25 227.75 Z"/>

<path fill="#0B4E55" stroke="none" d="
M 191.95 200.15
L 191.95 200.15 148.25 169 162.5 203.25 191.95 200.15 Z"/>

<path fill="#156171" stroke="none" d="
M 191.95 200.15
L 191.95 200.15 181.25 227.75 221.5 221.25 191.95 200.15 Z"/>

<path fill="#05355B" stroke="none" d="
M 157.75 232.25
L 154.25 256 186.25 263 245.25 210.5 201 234.75 157.75 232.25 Z"/>

<path fill="#239AD8" stroke="none" d="
M 57.55 303.95
L 57.05 244.45 17.55 191.95 57.55 303.95 Z"/>

<path fill="#024665" stroke="none" d="
M 135.05 346.95
L 123.05 313.95 78.05 287.45 57.55 303.95 135.05 346.95 Z"/>

<path fill="#156571" stroke="none" d="
M 57.05 244.45
L 78.05 287.45 123.05 313.95 57.05 244.45 Z"/>

<path fill="#0E7A96" stroke="none" d="
M 78.05 287.45
L 57.05 244.45 57.55 303.95 78.05 287.45 Z"/>

<path fill="#207FA7" stroke="none" d="
M 90.55 180.45
L 90.55 161.95 17.55 191.95 57.05 244.45 63.05 193.95 90.55 180.45 Z"/>

<path fill="#035158" stroke="none" d="
M 216 308.5
L 169.55 296.95 135.75 314.75 216 308.5 Z"/>

<path fill="#056D87" stroke="none" d="
M 265.25 279
L 169.55 296.95 216 308.5 265.25 279 Z"/>

<path fill="#055374" stroke="none" d="
M 169.55 296.95
L 265.25 279 127.5 269 169.55 296.95 Z"/>

<path fill="#27ABF2" stroke="none" d="
M 62.5 240.25
L 104.05 257.05 67 197.5 62.5 240.25 Z"/>

<path fill="#3A8AB6" stroke="none" d="
M 93.25 193.75
L 93.25 186.75 67 197.5 104.05 257.05 62.5 240.25 135.75 314.75 169.55 296.95 127.5 269 93.25 193.75 Z"/>

<path fill="#10698C" stroke="none" d="
M 246.5 175.5
L 231.75 163.25 220.75 206.25 246.5 175.5 Z"/>

<path fill="#186A86" stroke="none" d="
M 219.75 182
L 193.25 192 220.75 206.25 219.75 182 Z"/>

<path fill="#34ABD4" stroke="none" d="
M 231.75 163.25
L 219.75 182 220.75 206.25 231.75 163.25 Z"/>

<path fill="#406F6F" stroke="none" d="
M 215.5 172.25
L 221.25 161.75 204.25 167 215.5 172.25 Z"/>

<path fill="#0B6B86" stroke="none" d="
M 233 128.25
L 187 128.25 197 148.5 233 128.25 Z"/>

<path fill="#1A4651" stroke="none" d="
M 241.25 148.5
L 233 128.25 197 148.5 241.25 148.5 Z"/>

<path fill="#0C4F61" stroke="none" d="
M 174.25 167
L 197 148.5 187 128.25 174.25 167 Z"/>

<path fill="#107EB7" stroke="none" d="
M 170.5 179.25
L 174.25 167 187 128.25 159.5 155.25 170.5 179.25 Z"/>

<path fill="#25595F" stroke="none" d="
M 201.75 151.75
L 185 164.25 220.75 158 201.75 151.75 Z"/>

<path fill="#1A6D7E" stroke="none" d="
M 197.75 169
L 185.75 169.25 189.5 186 213.75 178.25 197.75 169 Z"/>

<path fill="#0B626B" stroke="none" d="
M 145.5 247.5
L 159 205 100.75 194.25 145.5 247.5 Z"/>

<path fill="#1587B2" stroke="none" d="
M 133.05 92.05
L 140 160 183.65 86.45 133.05 92.05 Z"/>

<path fill="#0C616E" stroke="none" d="
M 140 160
L 92.55 156.55 159 205 140 160 Z"/>

<path fill="#1BAEEF" stroke="none" d="
M 92.55 156.55
L 140 160 133.05 92.05 92.55 156.55 Z"/>

<path fill="#106788" stroke="none" d="
M 92.55 156.55
L 100.75 194.25 159 205 92.55 156.55 Z"/>

<path fill="#17676E" stroke="none" d="
M 214.55 83.05
L 183.65 86.45 140 160 214.55 83.05 Z"/>

<path fill="#238CB5" stroke="none" d="
M 297.05 161.05
L 283.55 94.55 239.55 114.55 297.05 161.05 Z"/>

<path fill="#115870" stroke="none" d="
M 189.05 117.55
L 239.55 114.55 245.55 75.55 189.05 117.55 Z"/>

<path fill="#117B9A" stroke="none" d="
M 283.55 94.55
L 245.55 75.55 239.55 114.55 283.55 94.55 Z"/>

<path fill="#2687AC" stroke="none" d="
M 243.05 71.15
L 248.05 47.55 214.55 71.55 243.05 71.15 Z"/>

<path fill="#1FA7D7" stroke="none" d="
M 293.05 70.55
L 248.05 47.55 243.05 71.15 293.05 70.55 Z"/>

<path fill="#095B55" stroke="none" d="
M 316.05 338.95
L 234.55 375.45 307.55 385.45 332.5 369.95 316.05 338.95 Z"/>

<path fill="#033254" stroke="none" d="
M 144.55 352.95
L 138.55 367.45 175.55 395.95 307.55 385.45 234.55 375.45 144.55 352.95 Z"/>

<path fill="#125D62" stroke="none" d="
M 401.5 243.95
L 353.5 241.45 316.05 338.95 332.5 369.95 401.5 243.95 Z"/>

<path fill="#189ADC" stroke="none" d="
M 307.5 159
L 290.5 245 341.25 184.75 307.5 159 Z"/>

<path fill="#075464" stroke="none" d="
M 192.75 265.5
L 290.5 245 307.5 159 192.75 265.5 Z"/>

<path fill="#127692" stroke="none" d="
M 339.05 240.3
L 341.25 184.75 290.5 245 192.75 265.5 265.25 272.25 339.05 240.3 Z"/>

<path fill="#0A4D58" stroke="none" d="
M 339.05 240.3
L 367.5 228 341.25 184.75 339.05 240.3 Z"/>

<path fill="#13355D" stroke="none" d="
M 393 232.05
L 409 241.55 404 141.55 393 232.05 Z"/>

<path fill="#0F505F" stroke="none" d="
M 442 180.05
L 404 141.55 409 241.55 442 180.05 Z"/>

<path fill="#2197C2" stroke="none" d="
M 302.05 78.05
L 307.05 149.55 334.5 103.05 302.05 78.05 Z"/>

<path fill="#05425A" stroke="none" d="
M 395.5 137.55
L 363.3 196.45 381.5 225.55 395.5 137.55 Z"/>

<path fill="#1D85B5" stroke="none" d="
M 339 157.55
L 334.5 103.05 307.05 149.55 339 157.55 Z"/>

<path fill="#2594B8" stroke="none" d="
M 334.5 103.05
L 339 157.55 365 103.05 334.5 103.05 Z"/>

<path fill="#075A80" stroke="none" d="
M 339 157.55
L 363.3 196.45 395.5 137.55 339 157.55 Z"/>

<path fill="#1A8FB4" stroke="none" d="
M 395.5 137.55
L 365 103.05 339 157.55 395.5 137.55 Z"/>

<path fill="#175B5C" stroke="none" d="
M 372 321.95
L 419.1 304.75 452 176.95 372 321.95 Z"/>

<path fill="#096984" stroke="none" d="
M 419.1 304.75
L 437.5 298.05 452 176.95 419.1 304.75 Z"/>

<path fill="#148BA9" stroke="none" d="
M 360.5 61.05
L 452 176.95 437.5 298.05 508 155.05 360.5 61.05 Z"/>

<path fill="#056177" stroke="none" d="
M 360.5 61.05
L 341 91.45 370 96.95 452 176.95 360.5 61.05 Z"/>
</g>
</defs>

<g transform="matrix( 1, 0, 0, 1, 0,0) ">
<use xlink:href="#Layer0_0_FILL"/>
</g>
</svg>
